<?xml version="1.0" standalone="no"?><!DOCTYPE svg PUBLIC "-//W3C//DTD SVG 1.1//EN" "http://www.w3.org/Graphics/SVG/1.1/DTD/svg11.dtd"><svg t="1526462738471" class="icon" style="" viewBox="0 0 1024 1024" version="1.1" xmlns="http://www.w3.org/2000/svg" p-id="1346" xmlns:xlink="http://www.w3.org/1999/xlink" width="200" height="200"><defs><style type="text/css"></style></defs><path d="M983.04 617.984l-69.12 0 0-353.792c0-99.328-73.216-176.64-166.4-176.64l-483.328 0c-91.648 0-166.4 74.752-166.4 166.4l0 364.032-58.88 0c-16.896 0-30.72 13.824-30.72 30.72 0 16.896 13.824 30.72 30.72 30.72l143.872 0 0 225.792c0 16.896 13.824 30.72 30.72 30.72 16.896 0 30.72-13.824 30.72-30.72l0-225.792 225.792 0 0 225.792c0 16.896 13.824 30.72 30.72 30.72s30.72-13.824 30.72-30.72l0-225.792 225.792 0 0 225.792c0 16.896 13.824 30.72 30.72 30.72s30.72-13.824 30.72-30.72l0-225.792L983.04 679.424c16.896 0 30.72-13.824 30.72-30.72C1013.76 631.808 999.936 617.984 983.04 617.984zM159.232 253.952c0-57.856 47.104-104.96 104.96-104.96l483.328 0c59.904 0 104.96 49.664 104.96 115.2l0 353.792-693.248 0L159.232 253.952z" p-id="1347"></path><path d="M413.696 445.44c-10.752-4.096-22.528 1.024-26.624 11.776-8.704 23.04-31.744 38.912-56.32 38.912-33.28 0-59.904-27.136-59.904-59.904l0-109.056c0-33.28 27.136-59.904 59.904-59.904 23.04 0 44.032 13.312 54.272 34.304 5.12 10.24 17.408 14.336 27.648 9.728 10.24-5.12 14.336-17.408 9.728-27.648-16.896-34.816-52.736-57.344-91.136-57.344-55.808 0-101.376 45.568-101.376 101.376L229.888 435.712c0 55.808 45.568 101.376 101.376 101.376 41.472 0 79.36-26.112 94.72-65.024C429.568 461.312 423.936 449.536 413.696 445.44z" p-id="1348"></path><path d="M545.28 225.28c-54.272 0-98.816 44.032-98.816 98.304l0 114.176c0 54.272 44.032 98.304 98.816 98.304s98.816-44.032 98.816-98.304l0-114.176C643.584 269.824 599.552 225.28 545.28 225.28zM602.624 438.272c0 31.744-25.6 57.344-57.344 57.344s-57.344-25.6-57.344-57.344l0-114.176c0-31.744 25.6-57.344 57.344-57.344s57.344 25.6 57.344 57.344L602.624 438.272z" p-id="1349"></path><path d="M760.832 500.736l-34.304 0c4.608-5.632 10.24-12.288 18.432-20.48 35.84-27.648 40.96-60.928 33.28-82.944-7.68-22.528-27.648-36.864-51.2-36.864-19.456 0-31.232 8.192-37.376 15.36-16.384 17.92-14.848 44.544-14.336 47.616 1.024 11.264 10.24 19.456 22.016 18.432 11.264-1.024 19.456-10.752 18.944-22.016-0.512-4.608 0.512-12.8 4.096-16.384 0.512-0.512 2.048-2.048 7.168-2.048 6.144 0 10.752 3.072 12.288 8.704 3.072 8.192-1.024 23.552-20.48 37.888-1.024 0.512-1.536 1.024-2.048 2.048-34.304 34.816-48.64 59.904-43.008 76.8 2.56 8.704 10.752 14.336 19.456 14.336l67.584 0c11.264 0 20.48-9.216 20.48-20.48S772.608 500.736 760.832 500.736z" p-id="1350"></path></svg>