<?xml version="1.0" standalone="no"?><!DOCTYPE svg PUBLIC "-//W3C//DTD SVG 1.1//EN" "http://www.w3.org/Graphics/SVG/1.1/DTD/svg11.dtd"><svg t="1526462789698" class="icon" style="" viewBox="0 0 1024 1024" version="1.1" xmlns="http://www.w3.org/2000/svg" p-id="2251" xmlns:xlink="http://www.w3.org/1999/xlink" width="200" height="200"><defs><style type="text/css"></style></defs><path d="M328.704 320.170667c104.789333-104.789333 274.773333-104.789333 379.562667 0 104.789333 104.789333 104.789333 274.773333 0 379.562666-104.789333 104.789333-274.773333 104.789333-379.562667 0-104.789333-104.789333-104.789333-274.773333 0-379.562666zM850.602667 146.773333l31.402666 31.402667-109.909333 109.909333-31.402667-31.402666L850.602667 146.773333zM261.12 735.914667l31.402667 31.402666L182.613333 877.226667l-31.402666-31.402667 109.909333-109.909333z m513.024-2.048l109.909333 109.909333-31.402666 31.402667-109.909334-109.909334 31.402667-31.402666zM184.661333 144.384l109.909334 109.909333-31.402667 31.402667-109.909333-109.909333 31.402666-31.402667z m652.288 293.205333l-11.605333-43.008 150.186667-39.936 11.605333 43.008-150.186667 39.936zM170.325333 570.026667l11.605334 43.008-150.186667 40.277333-11.605333-43.008 150.186666-40.277333zM665.941333 39.936l-40.277333 150.186667-43.008-11.605334 40.277333-150.186666 43.008 11.605333z m-215.722666 805.205333l-40.277334 150.186667-43.008-11.605333 40.277334-150.186667 43.008 11.605333zM407.210667 190.122667l-40.277334-150.186667 43.008-11.605333 40.277334 150.186666-43.008 11.605334z m215.722666 805.205333l-40.277333-150.186667 43.008-11.605333 40.277333 150.186667-43.008 11.605333zM194.901333 402.773333l-11.605333 43.008-150.186667-40.277333 11.605334-43.008 150.186666 40.277333z m643.413334 218.453334l11.264-43.008 150.186666 39.936-11.605333 43.008-149.845333-39.936z m0 0" p-id="2252"></path></svg>