<?xml version="1.0" standalone="no"?><!DOCTYPE svg PUBLIC "-//W3C//DTD SVG 1.1//EN" "http://www.w3.org/Graphics/SVG/1.1/DTD/svg11.dtd"><svg t="1526462756985" class="icon" style="" viewBox="0 0 1024 1024" version="1.1" xmlns="http://www.w3.org/2000/svg" p-id="1685" xmlns:xlink="http://www.w3.org/1999/xlink" width="200" height="200"><defs><style type="text/css"></style></defs><path d="M722.944 500.736c0-124.415-101.376-225.792-225.792-225.792s-225.792 101.376-225.792 225.792 101.376 225.792 225.792 225.792c124.415 0 225.792-101.376 225.792-225.792zM324.096 500.736c0-95.232 77.312-172.544 172.544-172.544s172.544 77.312 172.544 172.544-77.312 172.544-172.544 172.544c-94.72 0-172.544-77.312-172.544-172.544z" p-id="1686"></path><path d="M838.144 503.296c0-14.848-11.776-26.624-26.624-26.624s-26.624 11.776-26.624 26.624c0 153.089-124.415 278.016-278.016 278.016-14.848 0-26.624 11.776-26.624 26.624 0 14.848 11.776 26.624 26.624 26.624 182.784-0.512 331.264-148.992 331.264-331.264z" p-id="1687"></path><path d="M940.544 503.296c0-14.848-11.776-26.624-26.624-26.624s-26.624 11.776-26.624 26.624c0 209.92-170.496 380.416-380.416 380.416-14.848 0-26.624 11.776-26.624 26.624s11.776 26.624 26.624 26.624c239.104 0 433.664-194.56 433.664-433.664z" p-id="1688"></path><path d="M678.4 283.136c-5.12 5.12-7.681 12.288-7.68 18.944s2.56 13.312 7.68 18.944c10.24 10.24 27.136 10.752 37.376 0l72.704-72.192c10.24-10.24 10.752-27.136 0-37.376s-27.136-10.752-37.376 0l-72.704 71.68z" p-id="1689"></path><path d="M314.881 717.312c10.24-10.24 10.752-27.136 0-37.376-10.24-10.24-27.136-10.752-37.376 0l-72.704 72.192c-5.12 5.12-7.681 12.288-7.68 18.944s2.56 13.312 7.68 18.944c10.24 10.24 27.136 10.752 37.376 0l72.704-72.704z" p-id="1690"></path><path d="M315.904 279.552l-72.192-72.704c-10.24-10.24-27.136-10.752-37.376 0-5.12 5.12-7.681 12.288-7.68 18.944 0 6.657 2.56 13.312 7.68 18.944l72.192 72.704c10.24 10.24 27.136 10.752 37.376 0 10.24-10.24 10.24-27.136 0-37.888z" p-id="1691"></path><path d="M239.104 496.64c0 0 0 0 0 0 0-14.848-11.776-26.624-26.624-26.624l-102.4-0.512c-14.848 0-26.624 11.776-26.624 26.624 0 0 0 0 0 0 0 14.848 11.776 26.624 26.624 26.624l102.4 0.512c14.848 0 26.624-11.776 26.624-26.624z" p-id="1692"></path><path d="M469.504 216.064c0 14.848 11.776 26.624 26.624 26.624s26.624-11.776 26.624-26.624l0.512-102.4c0 0 0 0 0 0 0-14.848-11.776-26.624-26.624-26.624-14.848 0-26.624 11.776-26.624 26.624l-0.512 102.4c0 0 0 0 0 0z" p-id="1693"></path></svg>