<?xml version="1.0" standalone="no"?><!DOCTYPE svg PUBLIC "-//W3C//DTD SVG 1.1//EN" "http://www.w3.org/Graphics/SVG/1.1/DTD/svg11.dtd"><svg t="1526462783816" class="icon" style="" viewBox="0 0 1024 1024" version="1.1" xmlns="http://www.w3.org/2000/svg" p-id="2140" xmlns:xlink="http://www.w3.org/1999/xlink" width="200" height="200"><defs><style type="text/css"></style></defs><path d="M815.818644 645.951423c-5.684941 5.684941-11.369882 8.527412-19.897293 5.684941-5.684941-2.842471-11.369882-5.684941-14.212353-14.212353-2.842471-5.684941 0-14.212353 5.684941-19.897293 96.643997-96.643997 96.643997-190.445524 0-287.089522-110.85635-110.85635-110.85635-210.342817 0-324.041637 8.527412-8.527412 19.897294-8.527412 25.582235 0 8.527412 8.527412 8.527412 19.897294 0 28.424705-96.643997 96.643997-96.643997 173.390701 0 270.034698 110.85635 110.85635 110.85635 227.397641 2.84247 341.096461z m-287.089521 0c-5.684941 5.684941-11.369882 8.527412-19.897293 5.684941-5.684941-2.842471-11.369882-5.684941-14.212353-14.212353-2.842471-5.684941 0-14.212353 5.684941-19.897293 96.643997-96.643997 96.643997-190.445524 0-287.089522-110.85635-113.69882-110.85635-210.342817 0-324.041637 8.527412-8.527412 19.897294-8.527412 25.582235 0 8.527412 8.527412 8.527412 19.897294 0 28.424705-96.643997 96.643997-96.643997 173.390701 0 270.034698 110.85635 110.85635 113.69882 227.397641 2.84247 341.096461zM241.639602 645.951423c-8.527412 8.527412-19.897294 8.527412-25.582234 0-5.684941-8.527412-8.527412-19.897294 0-25.582235 96.643997-96.643997 96.643997-190.445524 0-287.089521-110.85635-113.69882-110.85635-213.185288 0-324.041638 8.527412-8.527412 19.897294-8.527412 25.582234 0 8.527412 8.527412 8.527412 19.897294 0 28.424705-96.643997 96.643997-96.643997 173.390701 0 270.034698 110.85635 108.013879 110.85635 224.55517 0 338.253991zM56.879019 768.177654h909.590562c8.527412 0 14.212353 5.684941 14.212353 14.212353v56.84941c0 8.527412-5.684941 14.212353-14.212353 14.212353H56.879019c-8.527412 0-14.212353-5.684941-14.212352-14.212353v-56.84941c0-8.527412 5.684941-14.212353 14.212352-14.212353z m0 170.548231h909.590562c8.527412 0 14.212353 5.684941 14.212353 14.212352v56.84941c0 8.527412-5.684941 14.212353-14.212353 14.212353H56.879019c-8.527412 0-14.212353-5.684941-14.212352-14.212353v-56.84941c0-8.527412 5.684941-14.212353 14.212352-14.212352z" p-id="2141"></path></svg>