<?xml version="1.0" standalone="no"?><!DOCTYPE svg PUBLIC "-//W3C//DTD SVG 1.1//EN" "http://www.w3.org/Graphics/SVG/1.1/DTD/svg11.dtd"><svg t="1526462745939" class="icon" style="" viewBox="0 0 1024 1024" version="1.1" xmlns="http://www.w3.org/2000/svg" p-id="1460" xmlns:xlink="http://www.w3.org/1999/xlink" width="200" height="200"><defs><style type="text/css"></style></defs><path d="M330.931085 408.255171c44.737924 0 81.005942-36.292578 81.005942-81.072457-0.001023-44.7676-81.005942-180.156126-81.005942-180.156126s-81.006965 135.388527-81.006966 180.157149c0 44.779879 36.269042 81.071434 81.006966 81.071434zM221.916229 271.177166c19.276019 0 34.902928-15.684214 34.902928-35.035958 0-19.346627-34.902928-77.858252-34.902928-77.858252S187.013301 216.794581 187.013301 236.141208c0 19.351744 15.626909 35.035958 34.902928 35.035958zM419.263899 247.90923c11.183713 0 20.250206-9.098215 20.250206-20.324908 0.001023-11.225669-20.250206-45.169759-20.250206-45.169759s-20.252253 33.945113-20.252253 45.169759c0 11.226692 9.067516 20.324908 20.252253 20.324908zM246.476601 379.196345c0-6.499018-12.065803-26.15059-12.065804-26.15059s-12.063757 19.651572-12.063756 26.15059c0 6.501064 5.402033 11.768021 12.063756 11.768021 6.664793 0.001023 12.065803-5.265934 12.065804-11.768021zM608.059799 279.620465V408.531464c0 21.12411-9.594519 40.741913-25.156959 55.026244a100.311637 100.311637 0 0 0-12.20702 13.423731c-11.716856 15.821337-18.627243 35.258015-18.627242 56.100715 0 53.184293 44.545542 96.325859 99.619881 96.325859 55.020104 0 99.619882-43.141566 99.619882-96.325859 0-20.841677-6.912433-40.280402-18.626219-56.100715a98.182137 98.182137 0 0 0-12.146645-13.373589c-15.591093-14.296611-25.219381-33.92874-25.219381-55.082526v-0.817622h-0.002047v-128.087237c0-30.236652-19.599384-54.642504-43.627636-54.642504-24.026206 0-43.626613 24.405853-43.626614 54.642504zM661.614529 83.47211l-407.715888 579.818595-21.299095-14.97711 407.715888-579.818595zM280.642748 762.588245L182.798303 901.730259l16.773012 11.800767 108.194164-153.85818a421.290045 421.290045 0 0 1-27.122731 2.915399zM569.852616 726.439954L446.585151 901.730259l16.773012 11.800767L591.884398 730.762399a380.119367 380.119367 0 0 0-22.031782-4.322445zM644.005476 746.031151L534.51376 901.730259l16.773012 11.800767 113.573685-161.504324c-7.000438-1.793856-13.944594-3.830235-20.854981-5.995551zM710.372 901.730259l16.773012 11.800767L835.092559 760.022817c-9.097192 1.415232-18.234293 2.495844-27.40107 3.317558L710.372 901.730259zM798.301631 901.730259l16.773012 11.800767 131.650389-187.217962c-11.568477 5.350868-23.308869 10.268878-35.274388 14.517645L798.301631 901.730259z" p-id="1461"></path><path d="M1015.335666 670.272723c-4.979408-10.184967-17.261129-14.370289-27.426652-9.43079l-51.361785 25.083282c-21.521153 10.508331-43.965328 18.805298-66.929342 25.00244l-6.324032 8.993838h-0.001024l6.325056-8.993838c-9.842159 2.657526-19.785625 4.870938-29.797653 6.729262-22.249747 4.131087-44.825928 6.358825-67.443042 6.517437l-0.001023 0.001023c-8.199753 0.057305-16.397459-0.217964-24.590048-0.685615v0.001023a380.499014 380.499014 0 0 1-57.44534-7.695262l-5.332449 7.582699h-0.002046l5.332448-7.583723a374.800221 374.800221 0 0 1-21.414728-5.197372l0.001023-0.001023c-7.866155-2.161223-15.693424-4.486174-23.423479-7.170307-9.334599-3.240811-18.793018-6.075369-28.317952-8.636704-7.096628-1.908466-14.226003-3.681856-21.407566-5.209652-53.686736-11.434423-109.453854-12.240789-163.455769-2.50096a417.146679 417.146679 0 0 0-12.360516 2.437515l-16.70752 23.760147h-0.001023l16.708543-23.76117c-14.143115 2.993171-28.158317 6.637164-41.943274 11.101849l-12.157901 3.930519c-7.972579 2.581802-16.031115 4.78805-24.124444 6.821359-9.749038 2.450818-19.560498 4.546549-29.434379 6.204306-22.017456 3.696182-44.273343 5.378497-66.497507 5.177929l-1.753947 2.493797h-0.001023l1.753947-2.493797c-8.134261-0.073678-16.257266-0.409322-24.367991-0.99977l-0.001023 0.001023a382.937552 382.937552 0 0 1-56.895825-8.477069l-7.511067 10.681271 7.512091-10.682294c-7.129374-1.616824-14.216793-3.409656-21.24793-5.436826l-0.002047 0.002047c-25.827225-7.448646-50.962695-17.574261-74.858942-30.490432L36.843116 660.273998c-9.951653-5.398964-22.397103-1.682315-27.789926 8.283664-5.383614 9.965979-1.675152 22.406313 8.286734 27.786856l31.584345 17.073864c0.60989 0.329505 1.238201 0.61296 1.849115 0.939395l0.001023-0.002046a414.189324 414.189324 0 0 0 18.517749 9.319249l6.387477-9.082865 0.002047 0.001023-6.389524 9.085936c16.016789 7.550976 32.477692 13.95278 49.222051 19.387559L6.940063 901.730259l16.773012 11.800767L139.259694 749.216703a422.799422 422.799422 0 0 1-20.744463-6.151093l0.001023-0.001024a420.273902 420.273902 0 0 0 20.745487 6.151094l5.992481-8.522094-5.993505 8.52414c18.135032 4.872984 36.546358 8.563026 55.130622 10.987239L94.869694 901.730259l16.773012 11.800767 106.153692-150.95813 8.201799-11.662621h0.001024l-8.2018 11.662621a424.101067 424.101067 0 0 0 62.848397 0.014326 421.192831 421.192831 0 0 0 27.119661-2.914376c23.88192-3.337002 47.561225-8.611122 70.718645-16.10684l4.485151-1.449001 7.77508-11.056824h0.001024l-7.776104 11.057847L270.726911 901.730259l16.773012 11.800767 127.064954-180.692339h0.001023a379.945405 379.945405 0 0 1 70.467935-10.824533L358.656543 901.730259l16.773012 11.800767 135.159306-192.205557 6.514367-9.263991h0.001023l-6.51539 9.265015a383.374504 383.374504 0 0 1 59.263755 5.113461 379.291512 379.291512 0 0 1 22.032806 4.322445c13.56904 3.070942 26.991748 6.830569 40.165791 11.402701 3.961218 1.3743 7.959276 2.614547 11.954263 3.864004l2.733251-3.886517-2.734274 3.887541c6.91141 2.165316 13.854543 4.201695 20.85498 5.996574l12.498662-17.774829h0.002047l-12.499685 17.775852c18.317181 4.699022 36.910655 8.097422 55.627948 10.278088L622.443391 901.730259l16.773012 11.800767L744.121662 764.352425c-7.890714-0.473791-15.771195-1.131777-23.630187-2.048659 7.858992 0.915859 15.738449 1.574868 23.630187 2.048659l12.769838-18.158568-12.768815 18.157545c8.490372 0.51063 16.98893 0.853437 25.491581 0.853437 12.715603 0 25.414833-0.729617 38.078246-1.865487 9.166777-0.822738 18.303878-1.90335 27.401071-3.318582l14.854312-21.123087h0.001024l-14.855336 21.12411c25.938766-4.03285 51.529607-10.379395 76.356038-19.193131l0.001023-0.001023c11.966543-4.248767 23.707958-9.165754 35.274388-14.517645l-0.001023 0.002046c2.597151-1.201361 5.243421-2.28095 7.817036-3.537569l51.361785-25.076118c10.172687-4.972245 14.397918-17.246803 9.432836-27.42563z m-928.407851 28.322046l3.323698-4.726652 0.002047 0.001024-3.322675 4.725628h-0.00307z m442.96981-4.727675l-16.771988-11.800767 16.773012 11.80179-0.001024-0.001023z m235.45764 40.290635l3.923356-5.579065-3.923356 5.579065z" p-id="1462"></path></svg>