<?xml version="1.0" standalone="no"?><!DOCTYPE svg PUBLIC "-//W3C//DTD SVG 1.1//EN" "http://www.w3.org/Graphics/SVG/1.1/DTD/svg11.dtd"><svg t="1526461900657" class="icon" style="" viewBox="0 0 1330 1024" version="1.1" xmlns="http://www.w3.org/2000/svg" p-id="1087" xmlns:xlink="http://www.w3.org/1999/xlink" width="259.765625" height="200"><defs><style type="text/css"></style></defs><path d="M1308.358118 613.778452H1114.124431v-20.200303a73.031866 73.031866 0 1 0-146.063733 0v20.200303h-29.52352v-66.816388a37.759029 37.759029 0 0 0-37.292868-37.292868H686.810319v-48.169955a229.972686 229.972686 0 1 0-43.508346 0v48.169955H427.314112a37.759029 37.759029 0 0 0-37.292868 37.292868v66.816388h-26.415781v-20.200303a73.031866 73.031866 0 1 0-146.063733 0v20.200303H23.308042A23.92959 23.92959 0 0 0 0 637.086495v259.496206a23.92959 23.92959 0 0 0 23.308042 23.308043h192.679818v20.200303a73.031866 73.031866 0 1 0 146.063733 0v-20.200303H388.467375v66.816388a37.759029 37.759029 0 0 0 37.292868 37.292868H901.24431a37.759029 37.759029 0 0 0 37.292868-37.292868v-66.816388h27.969651v20.200303a73.031866 73.031866 0 1 0 146.063732 0v-20.200303h194.233688a23.92959 23.92959 0 0 0 23.308042-23.308043V637.086495a21.598786 21.598786 0 0 0-21.754173-23.308043zM478.591806 231.526555a184.91047 184.91047 0 1 1 184.91047 184.910471 184.288923 184.288923 0 0 1-184.91047-184.910471zM212.880121 874.828528h-170.925645V661.948407h170.925645z m99.447648 66.816389a27.50349 27.50349 0 0 1-26.415781 27.969651 26.571168 26.571168 0 0 1-26.415782-27.969651V593.578149a27.50349 27.50349 0 0 1 26.415782-27.969651 26.571168 26.571168 0 0 1 26.415781 27.969651z m76.139606-66.816389h-29.523521V661.948407H388.467375zM870.16692 978.937785H458.391502a31.07739 31.07739 0 0 1-21.754173-21.754173V578.039454a5.749317 5.749317 0 0 1 1.55387-4.661609 67.593323 67.593323 0 0 1 6.215478-10.877086 17.714112 17.714112 0 0 1 12.430956-4.661609H870.16692a18.957208 18.957208 0 0 1 13.984825 6.215478l1.55387 1.55387c0 1.553869 1.553869 1.553869 1.553869 3.107739s1.553869 1.553869 1.55387 3.107739a11.654021 11.654021 0 0 1 1.553869 7.769347v379.144158A32.631259 32.631259 0 0 1 870.16692 978.937785z m96.339909-104.109257h-27.969651V661.948407h27.969651z m101.001517 66.816389a27.50349 27.50349 0 0 1-26.415782 27.969651 26.571168 26.571168 0 0 1-26.415781-27.969651V593.578149a27.50349 27.50349 0 0 1 26.415781-27.969651 26.571168 26.571168 0 0 1 26.415782 27.969651z m217.54173-66.816389h-170.925645V661.948407h170.925645z" fill="#2c2c2c" p-id="1088"></path><path d="M686.810319 231.526555V149.171472a23.308042 23.308042 0 0 0-46.616085 0v82.355083a23.308042 23.308042 0 0 0 46.616085 0zM711.672231 663.502276a22.997269 22.997269 0 0 0-32.63126 32.63126l49.723824 49.723824H545.408194a23.308042 23.308042 0 1 0 0 46.616085h183.356601l-49.723824 49.723824a22.531108 22.531108 0 0 0 0 32.631259 26.571168 26.571168 0 0 0 34.185129 0l88.570562-88.570561a23.308042 23.308042 0 0 0 6.215478-17.092565 32.631259 32.631259 0 0 0-6.215478-17.092564z" fill="#2c2c2c" p-id="1089"></path></svg>