<?xml version="1.0" standalone="no"?><!DOCTYPE svg PUBLIC "-//W3C//DTD SVG 1.1//EN" "http://www.w3.org/Graphics/SVG/1.1/DTD/svg11.dtd"><svg t="1526462773804" class="icon" style="" viewBox="0 0 1024 1024" version="1.1" xmlns="http://www.w3.org/2000/svg" p-id="2029" xmlns:xlink="http://www.w3.org/1999/xlink" width="200" height="200"><defs><style type="text/css"></style></defs><path d="M209.26429 360.101774H159.77065v-341.730873a18.347966 18.347966 0 0 0-18.347966-18.347966 18.347966 18.347966 0 0 0-18.347966 18.347966v341.730873H81.929403a13.760975 13.760975 0 0 0-13.760974 13.760975v127.289016a13.760975 13.760975 0 0 0 13.760974 13.760975h41.145315v490.681956a18.347966 18.347966 0 0 0 18.347966 18.347967 18.347966 18.347966 0 0 0 18.347966-18.347967V514.91274h49.44777a13.760975 13.760975 0 0 0 13.760974-13.760975v-127.289016a13.760975 13.760975 0 0 0-13.715104-13.760975zM575.673177 214.567999H526.225408V18.370901a18.347966 18.347966 0 0 0-18.347967-18.347966 18.347966 18.347966 0 0 0-18.347966 18.347966v196.197098h-41.145314a13.760975 13.760975 0 0 0-13.760975 13.760974v127.289017a13.760975 13.760975 0 0 0 13.760975 13.760974h41.145314v636.27307a18.347966 18.347966 0 0 0 18.347966 18.347966 18.347966 18.347966 0 0 0 18.347967-18.347966V369.378964h49.447769a13.760975 13.760975 0 0 0 13.760975-13.760974v-127.289017a13.760975 13.760975 0 0 0-13.760975-13.760974zM942.070597 486.725676h-49.44777V18.370901a18.347966 18.347966 0 0 0-18.347966-18.347966 18.347966 18.347966 0 0 0-18.347966 18.347966v468.354775h-41.145315a13.760975 13.760975 0 0 0-13.760974 13.760975v127.289016a13.760975 13.760975 0 0 0 13.760974 13.760975h41.145315v364.103924a18.347966 18.347966 0 0 0 18.347966 18.347967 18.347966 18.347966 0 0 0 18.347966-18.347967V641.536642h49.44777a13.760975 13.760975 0 0 0 13.760974-13.760975v-127.289016a13.760975 13.760975 0 0 0-13.760974-13.760975z" p-id="2030"></path></svg>