<?xml version="1.0" standalone="no"?><!DOCTYPE svg PUBLIC "-//W3C//DTD SVG 1.1//EN" "http://www.w3.org/Graphics/SVG/1.1/DTD/svg11.dtd"><svg t="1526462752170" class="icon" style="" viewBox="0 0 1024 1024" version="1.1" xmlns="http://www.w3.org/2000/svg" p-id="1572" xmlns:xlink="http://www.w3.org/1999/xlink" width="200" height="200"><defs><style type="text/css"></style></defs><path d="M384 584.533333h6.4c10.666667-2.133333 17.066667-14.933333 14.933333-25.6-2.133333-8.533333-4.266667-19.2-4.266666-27.733333 0-42.666667 64-134.4 115.2-192 10.666667 12.8 25.6 32 42.666666 53.333333 6.4 8.533333 21.333333 10.666667 29.866667 4.266667 8.533333-6.4 10.666667-21.333333 4.266667-29.866667-32-42.666667-59.733333-74.666667-61.866667-76.8l-14.933333-17.066666-14.933334 17.066666c-14.933333 17.066667-140.8 162.133333-140.8 238.933334 0 12.8 2.133333 25.6 4.266667 38.4 2.133333 10.666667 10.666667 17.066667 19.2 17.066666zM627.2 454.4c-10.666667 4.266667-14.933333 17.066667-10.666667 27.733333 12.8 25.6 14.933333 38.4 14.933334 46.933334 0 59.733333-51.2 110.933333-115.2 110.933333-19.2 0-38.4-4.266667-53.333334-12.8-10.666667-6.4-23.466667-2.133333-27.733333 8.533333-6.4 10.666667-2.133333 23.466667 8.533333 27.733334 23.466667 10.666667 49.066667 17.066667 74.666667 17.066666 87.466667 0 157.866667-68.266667 157.866667-153.6 0-17.066667-6.4-38.4-19.2-66.133333-6.4-6.4-19.2-10.666667-29.866667-6.4z" fill="#515151" p-id="1573"></path><path d="M672 98.133333h-320c-85.333333 0-153.6 68.266667-153.6 153.6v433.066667c0 81.066667 61.866667 147.2 140.8 153.6v44.8h-66.133333c-12.8 0-21.333333 8.533333-21.333334 21.333333s8.533333 21.333333 21.333334 21.333334h480c12.8 0 21.333333-8.533333 21.333333-21.333334s-8.533333-21.333333-21.333333-21.333333h-66.133334v-44.8c78.933333-6.4 140.8-72.533333 140.8-153.6V251.733333c-2.133333-83.2-70.4-153.6-155.733333-153.6zM381.866667 883.2v-44.8h262.4v44.8H381.866667z m401.066666-198.4c0 61.866667-49.066667 110.933333-110.933333 110.933333h-320c-61.866667 0-110.933333-49.066667-110.933333-110.933333V251.733333c0-61.866667 49.066667-110.933333 110.933333-110.933333h320c61.866667 0 110.933333 49.066667 110.933333 110.933333v433.066667z" fill="#515151" p-id="1574"></path><path d="M650.666667 358.4L341.333333 648.533333c-8.533333 8.533333-8.533333 21.333333 0 29.866667 4.266667 4.266667 10.666667 6.4 14.933334 6.4 4.266667 0 10.666667-2.133333 14.933333-6.4l309.333333-290.133333c8.533333-8.533333 8.533333-21.333333 0-29.866667-8.533333-8.533333-21.333333-8.533333-29.866666 0z" fill="#515151" p-id="1575"></path></svg>