<?xml version="1.0" standalone="no"?><!DOCTYPE svg PUBLIC "-//W3C//DTD SVG 1.1//EN" "http://www.w3.org/Graphics/SVG/1.1/DTD/svg11.dtd"><svg t="1526462769421" class="icon" style="" viewBox="0 0 1024 1024" version="1.1" xmlns="http://www.w3.org/2000/svg" p-id="1918" xmlns:xlink="http://www.w3.org/1999/xlink" width="200" height="200"><defs><style type="text/css"></style></defs><path d="M513.2175348455256 572.8924727006392c2.435856212269176-4.060022527521307 4.871712424538352-7.7134135853160535 6.901723688299007-11.77264959161932C529.8618968616834 544.4754610928621 544.8813060413707 537.1686789772727 559.0890253240412 538.7928452925248c-10.14848327636719-16.64436201615767-22.32697781649503-32.070402665571734-36.535483620383516-46.278908469460234-74.6935605135831-74.6935605135831-74.6935605135831-194.8535530783914 0-267.9237337979404 10.960959694602273-10.960959694602273 10.960959694602273-28.822856556285515 0-41.00135109641336-10.960173173384234-10.960173173384234-28.822070035067483-10.960173173384234-41.00056457519532 0-47.089025324041195 47.09059836647728-72.25770430131395 108.38812949440697-72.25770430131395 174.15152809836647 0 66.16924355246805 25.16867897727273 127.46677468039775 72.25770430131395 174.15152809836647 12.584339488636365 12.177708018909803 23.139454234730117 25.980368874289777 31.663771195845175 40.99977805397728zM245.69964599609364 224.99604797363276c10.960173173384234-10.960959694602273 10.960173173384234-28.822070035067483 0-41.00135109641336-10.960959694602273-10.960173173384234-28.822856556285515-10.960173173384234-41.00135109641336 0-47.089025324041195 47.09059836647728-72.25770430131395 108.38812949440697-72.25770430131395 174.15152809836647s25.16867897727273 127.46756120161578 72.25770430131395 174.15152809836647c36.535483620383516 34.504685835404835 55.61491532759233 82.8128190474077 55.61491532759233 133.15017700195315 0 50.33735795454546-19.07943170720881 98.64549116654831-55.20907037908382 134.77434331720528-10.960173173384234 10.960173173384234-10.960173173384234 28.822070035067483 0 41.00056457519532 6.08924727006392 6.08924727006392 13.396815906871451 8.524316961115057 20.297753073952418 8.524316961115057s14.613564231178978-2.4350696910511362 20.29696655273438-8.524316961115057c47.08981184525924-47.08981184525924 72.25849082253197-108.38812949440697 72.25849082253197-174.15152809836647s-25.16867897727273-127.46677468039775-72.25770430131395-174.15152809836647c-74.69434703480114-74.6935605135831-74.69434703480114-194.8535530783914 0-267.9237337979404zM819.7075500488281 491.7030334472656c-36.129638671875-36.129638671875-55.20907037908382-82.8128190474077-55.20907037908382-134.77434331720528 0-50.33735795454546 19.07943170720881-98.64549116654831 55.20907037908382-134.77434331720528 10.960173173384234-10.960959694602273 10.960173173384234-28.822070035067483 0-41.00135109641336-10.960959694602273-10.960173173384234-28.822070035067483-10.960173173384234-41.00135109641336 0-47.089025324041195 47.09059836647728-72.25770430131395 108.38812949440697-72.25770430131395 174.15152809836647s25.16867897727273 127.46756120161578 72.25770430131395 174.15152809836647c75.1009785045277 75.91188188032672 75.1009785045277 196.07187444513497 0.40663146972656256 269.54868663441056-10.960959694602273 10.960173173384234-10.960959694602273 28.821283513849433 0 40.99977805397728 6.08924727006392 6.08924727006392 13.39602938565341 8.525103482333098 20.29696655273438 8.525103482333098 7.306782115589489 0 14.614350752397018-2.435856212269176 20.297753073952418-8.525103482333098 47.089025324041195-47.089025324041195 72.25770430131395-108.38734297318895 72.25770430131395-174.15152809836647 0-65.76261208274147-25.16867897727273-127.46677468039775-72.25770430131395-174.1499550559304zM724.7162364612926 802.2514981356535c-43.43642078746449-75.50603693181819-87.68453147194603-150.60622891512787-131.93264215642756-225.70563437721952-15.832672119140627-26.792845292524856-46.2781219482422-26.792845292524856-62.11000754616478 0-45.87227699973368 75.91188188032672-90.93207758123225 152.22960870916194-136.39850963245738 228.14149058948865-6.088460748845882 10.555114746093752-10.960173173384234 21.515287919477984-4.46508095481179 33.693782459605835 6.900937167080966 12.584339488636365 19.07943170720881 12.990184437144888 31.257926247336652 12.990184437144888H711.3202070756392c12.17849454012784-0.4058449485085228 21.515287919477984-8.930948430841623 20.70359802246094-21.109442970969464-0.4058449485085228-9.336006858132102-2.435856212269176-19.89112160422585-7.306782115589489-28.010380138050426zM559.0890253240412 809.9656982421875c-12.17849454012784 0-21.515287919477984-9.336793379350143-21.515287919477984-21.515287919477984 0-11.77264959161932 9.336793379350143-21.109442970969464 21.515287919477984-21.109442970969464 12.584339488636365-0.4058449485085228 21.515287919477984 8.930948430841623 21.515287919477984 21.109442970969464s-9.336793379350143 21.515287919477984-21.515287919477984 21.515287919477984z m22.32697781649503-126.6558713045987v41.8130409934304c0 12.990184437144888-9.336006858132102 22.32697781649503-21.515287919477984 22.32697781649503-11.77264959161932 0-21.515287919477984-9.742638327858668-21.515287919477984-22.73282276500355V639.4675612016158c0-12.584339488636365 9.336793379350143-21.921132867986508 21.110229492187504-21.921132867986508 11.77186307040128 0 21.514501398259945 9.742638327858668 21.92034634676847 22.32697781649503v43.43563426624645z" p-id="1919"></path></svg>