<?xml version="1.0" standalone="no"?><!DOCTYPE svg PUBLIC "-//W3C//DTD SVG 1.1//EN" "http://www.w3.org/Graphics/SVG/1.1/DTD/svg11.dtd"><svg t="1526461920980" class="icon" style="" viewBox="0 0 1024 1024" version="1.1" xmlns="http://www.w3.org/2000/svg" p-id="1306" xmlns:xlink="http://www.w3.org/1999/xlink" width="200" height="200"><defs><style type="text/css"></style></defs><path d="M596.35 133.89h-5.12a76.29 76.29 0 0 0-76.29 70.66c-2.56-39.42-48.64-58.37-48.64-58.37a182.27 182.27 0 0 0-58.88-12.8h-119.8a30.72 30.72 0 0 0-30.72 30.72V372a30.72 30.72 0 0 0 30.72 30.72h56.32a30.72 30.72 0 0 1 30.72 30.72v358.4a30.72 30.72 0 0 0 30.72 30.72h232.44a30.72 30.72 0 0 0 30.72-30.72V433.41a30.72 30.72 0 0 1 30.72-30.72h47.62A30.72 30.72 0 0 0 777.6 372V164.1a30.72 30.72 0 0 0-30.72-30.72H596.35M191.1 102.14a40.7 40.7 0 0 1 40.7 40.7v257a40.7 40.7 0 0 1-40.7 40.7 40.7 40.7 0 0 1-40.7-40.7v-257a40.7 40.7 0 0 1 40.7-40.7zM838.78 102.14a40.7 40.7 0 0 1 40.7 40.7v257a40.7 40.7 0 0 1-40.7 40.7 40.7 40.7 0 0 1-40.7-40.7v-257a40.7 40.7 0 0 1 40.7-40.7zM345.73 852.74h340.48a34.56 34.56 0 0 1 34.56 34.56 34.56 34.56 0 0 1-34.56 34.56H345.73a34.56 34.56 0 0 1-34.56-34.56 34.56 34.56 0 0 1 34.56-34.56zM115.58 251.65h-15.36c-7.17 0-12.8-13.31-12.8-29.7A51.2 51.2 0 0 0 50 273.15a38.4 38.4 0 0 0 12.34 31.75c13.82 9.73 25.09 12.29 25.09 5.63a12.8 12.8 0 0 1 12.28-13.3h0.52c7.17 0 12.8 9.22 12.8 20s3.07 20 6.66 20 6.66-13.82 6.66-30.72v-66.64c0-16.9-3.07-30.72-6.66-30.72s-6.66 9.73-6.66 21v21m823.3-25.6v11.78a12.8 12.8 0 0 1-12.8 11.78c-7.17 0-12.8-9.22-12.8-20s-3.07-20-6.66-20-6.66 13.82-6.66 30.72v67.07c0 16.9 3.07 30.72 6.66 30.72s6.66-9.73 6.66-21 5.63-21 12.8-21 12.8 13.31 12.8 29.7a51.2 51.2 0 0 0 0-98.82" p-id="1307"></path></svg>