<?xml version="1.0" standalone="no"?><!DOCTYPE svg PUBLIC "-//W3C//DTD SVG 1.1//EN" "http://www.w3.org/Graphics/SVG/1.1/DTD/svg11.dtd"><svg t="1526462731381" class="icon" style="" viewBox="0 0 1024 1024" version="1.1" xmlns="http://www.w3.org/2000/svg" p-id="1234" xmlns:xlink="http://www.w3.org/1999/xlink" width="200" height="200"><defs><style type="text/css"></style></defs><path d="M625.472 606.912 625.472 161.92c0-64.448-50.816-116.672-113.472-116.672S398.528 97.536 398.528 161.92l0 444.992c-51.392 36.928-85.12 98.24-85.12 167.616 0 112.768 88.896 204.224 198.592 204.224 109.696 0 198.592-91.392 198.592-204.224C710.592 705.152 676.928 643.84 625.472 606.912L625.472 606.912 625.472 606.912zM512 949.568c-93.888 0-170.24-78.528-170.24-175.04 0-57.152 27.264-110.848 72.96-143.68L426.88 622.08 426.88 161.92c0-48.256 38.144-87.488 85.12-87.488 46.912 0 85.12 39.232 85.12 87.488L597.12 622.08l12.096 8.704c45.76 32.768 72.96 86.464 72.96 143.68C682.176 871.104 605.888 949.568 512 949.568L512 949.568 512 949.568zM512 949.568" p-id="1235"></path><path d="M554.56 666.24 554.56 348.48 554.432 348.48C553.024 325.696 534.528 307.712 512 307.712c-22.528 0-41.024 18.048-42.432 40.832L469.44 348.544l0 317.696c-41.6 17.28-70.912 59.264-70.912 108.224 0 64.448 50.752 116.672 113.472 116.672s113.472-52.224 113.472-116.672C625.472 725.44 596.096 683.52 554.56 666.24L554.56 666.24 554.56 666.24zM554.56 666.24" p-id="1236"></path></svg>