<?xml version="1.0" standalone="no"?><!DOCTYPE svg PUBLIC "-//W3C//DTD SVG 1.1//EN" "http://www.w3.org/Graphics/SVG/1.1/DTD/svg11.dtd"><svg t="1526462761609" class="icon" style="" viewBox="0 0 1024 1024" version="1.1" xmlns="http://www.w3.org/2000/svg" p-id="1803" xmlns:xlink="http://www.w3.org/1999/xlink" width="200" height="200"><defs><style type="text/css"></style></defs><path d="M261.099783 600.086239c-93.923949 0-170.339822-75.683001-170.339822-168.707285 0-90.047305 157.163277-350.899427 163.850108-361.963278l6.489714-10.725212 6.489714 10.725212c6.686831 11.058796 163.850109 271.910918 163.850108 361.963278 0 93.024284-76.415874 168.707285-170.339822 168.707285z m0-511.92924c-30.184245 51.103968-155.17694 267.351945-155.17694 343.2169 0 84.664482 69.612794 153.544403 155.17694 153.544403s155.17694-68.879921 155.17694-153.544403c0-75.880118-124.992695-292.112932-155.17694-343.2169zM511.297453 268.741876c-46.792655 0-84.861599-37.720197-84.861599-84.088293 0-43.856111 75.177572-168.636525 78.371885-173.928371l6.489714-10.725212 6.489714 10.725212c3.199368 5.291846 78.37694 130.072261 78.37694 173.928371-0.005054 46.36304-38.073998 84.088292-84.866654 84.088293z m0-239.255124c-24.169635 41.278421-69.698717 125.220138-69.698717 155.166831 0 38.008292 31.265864 68.92541 69.698717 68.92541s69.703771-30.922172 69.703771-68.92541c-0.005054-29.946693-45.534136-113.893465-69.703771-155.166831zM751.194472 1024c-87.611135 0-158.891846-71.452557-158.891846-159.281027 0-46.979664 21.561619-92.640158 57.800908-122.708154V417.257256c0-55.875222 45.352182-101.333544 101.090938-101.333544 55.748865 0 101.111155 45.458322 101.111155 101.333544v324.768726c36.229181 30.052833 57.780691 75.708272 57.780691 122.687937 0 87.833524-71.280711 159.286081-158.891846 159.286081z m0-696.638421c-49.430997 0-89.648016 40.328213-89.648016 89.895677v330.212201l-2.148075 1.71846c-34.849358 27.884541-55.652833 71.073485-55.652833 115.526002 0 81.520711 66.145548 147.838105 147.448924 147.838105s147.448924-66.317394 147.448924-147.838105c0-44.462626-20.793366-87.646515-55.632616-115.510839l-2.148075-1.71846V417.257256c0-49.567463-40.222073-89.895676-89.668233-89.895677z" fill="" p-id="1804"></path><path d="M957.647226 736.486476h-82.577058a10.280434 10.280434 0 0 1-7.323672-3.042685 10.356249 10.356249 0 0 1 7.323672-17.65465h82.577058a10.351194 10.351194 0 0 1 0 20.697335z m-82.577058-14.980928a4.634788 4.634788 0 0 0-0.010109 9.264521h82.592221a4.634788 4.634788 0 0 0 0-9.264521h-82.582112zM925.623218 694.222468h-50.861362a10.295597 10.295597 0 0 1-7.323672-3.037631 10.356249 10.356249 0 0 1 7.323672-17.659704h50.861362a10.356249 10.356249 0 0 1 0 20.697335z m-50.866416-14.980928a4.629733 4.629733 0 0 0-0.005055 9.264521h50.871471a4.634788 4.634788 0 0 0 0-9.264521h-50.866416zM925.623218 651.95846h-50.861362a10.34614 10.34614 0 0 1 0-20.687226h50.861362a10.34614 10.34614 0 0 1 0 20.687226z m-50.866416-14.970819a4.624679 4.624679 0 0 0 0 9.254412h50.861362a4.629733 4.629733 0 0 0 0-9.254412h-50.861362zM925.623218 609.709615h-50.861362a10.260217 10.260217 0 0 1-7.313564-3.032577 10.356249 10.356249 0 0 1 7.313564-17.674866h50.861362a10.356249 10.356249 0 0 1 0 20.707443z m-50.866416-14.991037a4.634788 4.634788 0 0 0 0 9.27463h50.861362a4.634788 4.634788 0 1 0 0-9.27463h-50.861362zM925.623218 567.445607h-50.861362a10.260217 10.260217 0 0 1-7.30851-3.032576 10.356249 10.356249 0 0 1 7.30851-17.679921h50.861362a10.356249 10.356249 0 0 1 0 20.712497z m-50.866416-14.996091a4.634788 4.634788 0 0 0 0.005054 9.279684h50.861362a4.634788 4.634788 0 0 0 0-9.279684h-50.866416zM802.899901 766.877947V450.80766h-101.090938v316.075341s-57.805962 28.28383-57.805962 97.178914c0 59.883277 48.602093 108.601619 108.338796 108.601619 59.746811 0 108.348904-48.723396 108.348904-108.601619 0-74.631708-57.7908-97.183968-57.7908-97.183968zM373.143376 962.469023l-38.326713-16.229339 371.627088-881.969279 38.321659 16.224284-371.622034 881.974334z m-25.089516-21.602054l19.706693 8.339586 363.772715-863.339151-19.701639-8.339586L348.05386 940.866969z" fill="" p-id="1805"></path><path d="M830.587325 867.306772m-14.318816 0a14.318815 14.318815 0 1 0 28.637631 0 14.318815 14.318815 0 1 0-28.637631 0Z" fill="#FFFFFF" p-id="1806"></path><path d="M817.784798 921.827443c-1.50618 19.181046-30.027562 34.343929-49.597789 34.343929a36.94689 36.94689 0 0 1-16.436565-3.871589l-5.160434 2.936545a42.016347 42.016347 0 0 0 21.591945 5.989338c23.340731 0 54.798657-18.988983 54.798657-42.329713v-0.030326l-5.195814 2.961816z" fill="#FFFFFF" p-id="1807"></path><path d="M123.137769 411.288134c0 85.665232 63.12308 153.301797 142.030721 153.301797 65.377295 0 121.73773-54.106219 137.517236-119.483514-33.818282-27.055637-114.975084-20.287937-114.975084-20.287937-65.377295 0-121.73773-31.564067-155.556012-63.12308-4.50843 15.774452-9.016861 33.808174-9.016861 49.592734zM447.537532 175.191945c0 39.509418 29.112734 70.704521 65.503653 70.704521 30.158973 0 56.1431-24.95305 63.426337-55.106969-15.597552-12.479052-53.0246-9.360553-53.0246-9.360553-30.153919 0-56.148154-14.556367-71.745706-29.112735-2.082369 7.278184-4.159684 15.597552-4.159684 22.875736z" fill="" p-id="1808"></path></svg>