<?xml version="1.0" standalone="no"?><!DOCTYPE svg PUBLIC "-//W3C//DTD SVG 1.1//EN" "http://www.w3.org/Graphics/SVG/1.1/DTD/svg11.dtd"><svg t="1526462799866" class="icon" style="" viewBox="0 0 1024 1024" version="1.1" xmlns="http://www.w3.org/2000/svg" p-id="2474" xmlns:xlink="http://www.w3.org/1999/xlink" width="200" height="200"><defs><style type="text/css"></style></defs><path d="M631.467 870.4c0 12.561-10.195 22.756-22.756 22.756H426.667c-12.561 0-22.756-10.195-22.756-22.756s10.195-22.756 22.756-22.756H608.71c12.561 0 22.756 10.195 22.756 22.756z m-22.756 34.133H426.667c-14.973 0-26.567 14.461-21.584 30.174 3.004 9.478 12.595 15.337 22.54 15.337h0.34a34.716 34.716 0 0 1 31.04 19.183l0.238 0.478c7.93 15.838 24.121 25.85 41.836 25.85H534.3a46.764 46.764 0 0 0 41.825-25.85l0.24-0.478a34.716 34.716 0 0 1 31.038-19.183h0.341c9.944 0 19.536-5.86 22.54-15.337 4.994-15.713-6.6-30.174-21.573-30.174zM517.69 176.356c12.561 0 22.755-10.195 22.755-22.756V62.578c0-12.561-10.194-22.756-22.755-22.756s-22.756 10.195-22.756 22.756V153.6c0 12.561 10.195 22.756 22.756 22.756z m-241.357 86.641c4.437 4.449 10.263 6.668 16.088 6.668s11.651-2.219 16.088-6.668c8.886-8.886 8.886-23.29 0-32.176l-64.364-64.364c-8.874-8.886-23.301-8.886-32.176 0-8.886 8.886-8.886 23.29 0 32.176l64.364 64.364z m-54.465 209.18c0-12.56-10.195-22.755-22.756-22.755H108.09c-12.561 0-22.756 10.195-22.756 22.756s10.195 22.755 22.756 22.755h91.022c12.561 0 22.756-10.194 22.756-22.755z m54.465 209.181l-64.364 64.364c-8.886 8.886-8.886 23.29 0 32.177 4.437 4.448 10.263 6.667 16.088 6.667s11.651-2.219 16.088-6.667l64.364-64.364c8.886-8.886 8.886-23.29 0-32.177-8.874-8.886-23.301-8.886-32.176 0z m482.714 0c-8.886-8.886-23.29-8.886-32.177 0s-8.886 23.29 0 32.177l64.364 64.364c4.45 4.448 10.263 6.667 16.089 6.667s11.64-2.219 16.088-6.667c8.886-8.886 8.886-23.29 0-32.177l-64.364-64.364z m168.243-231.936h-91.022c-12.561 0-22.756 10.195-22.756 22.756s10.195 22.755 22.756 22.755h91.022c12.561 0 22.755-10.194 22.755-22.755s-10.194-22.756-22.755-22.756zM742.958 269.665c5.825 0 11.639-2.219 16.088-6.668l64.364-64.364c8.886-8.886 8.886-23.29 0-32.176s-23.29-8.886-32.177 0L726.87 230.82c-8.886 8.886-8.886 23.29 0 32.176 4.438 4.449 10.263 6.668 16.089 6.668zM631.467 813.51c0 12.561-10.195 22.756-22.756 22.756H426.667c-12.561 0-22.756-10.195-22.756-22.756 0-12.117 9.5-21.936 21.447-22.619-14.165-128.045-146.602-156.57-146.602-307.336 0-131.96 106.973-238.934 238.933-238.934s238.933 106.974 238.933 238.934c0 150.766-132.437 179.29-146.602 307.336 11.946 0.683 21.447 10.502 21.447 22.62z m-166.218-505.06c-3.539-8.726-13.472-12.925-22.232-9.409-58.152 23.564-102.241 73.933-117.931 134.736-2.355 9.136 3.14 18.432 12.265 20.787 1.422 0.375 2.856 0.546 4.267 0.546 7.6 0 14.53-5.109 16.52-12.8 12.994-50.38 49.516-92.114 97.69-111.627 8.738-3.539 12.948-13.483 9.42-22.232z" p-id="2475"></path></svg>