<?xml version="1.0" standalone="no"?><!DOCTYPE svg PUBLIC "-//W3C//DTD SVG 1.1//EN" "http://www.w3.org/Graphics/SVG/1.1/DTD/svg11.dtd"><svg t="1526461941907" class="icon" style="" viewBox="0 0 1024 1024" version="1.1" xmlns="http://www.w3.org/2000/svg" p-id="1524" xmlns:xlink="http://www.w3.org/1999/xlink" width="200" height="200"><defs><style type="text/css"></style></defs><path d="M522.401344 1024c-62.479725 0-120.158042-28.178837-159.239863-77.539151H275.789171c-3.639447 25.046149-30.569303 44.553787-63.145166 44.553787-35.048228 0-63.559786-22.589139-63.559785-50.353355v-318.172598c0-27.769335 28.511557-50.363593 63.559785-50.363593 32.575862 0 59.505719 19.517876 63.145166 44.564025h87.474686c5.359354-6.480365 11.174278-12.356714 16.661601-17.629049V460.111013L285.320323 408.544509h-36.138527c-13.503319 0-23.684556-10.862033-23.684555-25.261137s10.181237-25.261137 23.684555-25.261137h546.561946c13.508438 0 23.689674 10.862033 23.689674 25.261137s-10.181237 25.261137-23.689674 25.261137h-36.194834l-94.722866 51.571623v138.91834c5.477085 5.236503 11.297129 11.102615 16.717907 17.654643h76.387427c1.576582-26.663681 29.453411-47.978245 63.498361-47.978246 34.971447 0 63.483004 22.573782 63.564904 50.322643v318.254499c0 27.769335-28.511557 50.363593-63.564904 50.363593-31.096537 0-57.053827-17.787731-62.515556-41.190755h-77.272975c-39.086939 49.360314-96.765256 77.539151-159.239862 77.539151z m-271.786292-103.138127h125.287051l3.839079 5.159722c34.213869 45.997281 86.215468 72.384548 142.66528 72.384548s108.451412-26.382148 142.660162-72.384548l3.839079-5.159722h114.547868v16.421019c0 13.426538 17.388467 24.769735 37.976166 24.769735 20.58258 0 37.971047-11.343198 37.971047-24.769735V619.064225c-0.04095-13.406063-17.424298-24.764616-37.971047-24.764617-20.58258 0-37.976166 11.343198-37.976166 24.764617v23.213628h-114.527393l-3.839079-5.134127c-6.531552-8.732624-14.680637-16.58482-21.805966-23.264817l-4.048949-3.787891v-165.182756l112.566904-61.287051H293.070143l112.449172 61.29217v165.157162l-4.018235 3.782772c-7.499 7.074142-15.356314 14.701112-21.780373 23.295529l-3.839079 5.134128H250.615052v-19.794289c0-13.426538-17.388467-24.769735-37.971047-24.769736-20.58258 0-37.965928 11.343198-37.965928 24.769736v318.172598c0 13.421419 17.388467 24.759498 37.965928 24.759498 20.58258 0 37.971047-11.338079 37.971047-24.759498v-19.799408z" fill="" p-id="1525"></path><path d="M522.473006 452.222986c-30.272415 0-59.019435-5.169959-78.875149-14.178997l-21.54491-9.781972h200.737743l-21.534671 9.781972c-19.840358 9.009038-48.556666 14.178997-78.783013 14.178997z m-41.257298-13.723426c25.476126 4.545469 56.971927 4.550588 82.448053 0H481.215708zM604.537151 577.335999l-7.227705-3.270895c-25.04103-11.322723-50.235623-17.065984-74.908102-17.065984-24.718548 0-49.938735 5.722787-74.969528 17.009678l-7.222586 3.260657V468.480205l25.552907 11.670799c15.566184 7.099736 35.682956 11.005359 56.639207 11.005358 20.925538 0 41.016716-3.910741 56.577781-11.005358l25.558026-11.599136v108.784131z m-82.135807-30.574422c23.745981 0 47.896345 4.995921 71.898264 14.854675V484.440534l-11.08214 5.026634c-16.856115 7.688395-38.45733 11.926738-60.816124 11.926737-22.389507 0-44.016316-4.238343-60.892906-11.931856l-11.061665-5.052227v77.16548c23.996801-9.83316 48.16764-14.813725 71.954571-14.813725zM522.401344 966.275614c-46.196913 0-88.785092-21.662641-116.851316-59.444294a45.111733 45.111733 0 0 0-36.025914-18.094857h-106.112133a44.738063 44.738063 0 0 0-41.78965 28.347757l-14.813725 37.264656v-345.563145l14.813725 37.274894a44.738063 44.738063 0 0 0 41.78965 28.347757h106.055827a45.075902 45.075902 0 0 0 36.031032-18.099976c28.153243-37.812365 70.761897-59.495481 116.902504-59.495481 46.120131 0 88.723666 21.662641 116.887147 59.434056a45.147565 45.147565 0 0 0 36.04127 18.105095h95.321763a44.738063 44.738063 0 0 0 41.794769-28.347757l14.813725-37.280013v313.151084h-12.894186l-1.980964-4.842358a44.717588 44.717588 0 0 0-41.784532-28.352875h-95.321763a44.942814 44.942814 0 0 0-36.020795 18.089738c-28.107174 37.817484-70.695353 59.505719-116.856434 59.505719z m-258.989363-92.900584h106.112133c18.954811 0 37.029193 9.075582 48.346797 24.288571 25.143406 33.845317 63.242422 53.25058 104.530433 53.25058 41.257298 0 79.351196-19.425738 104.520195-53.296649 11.256179-15.212989 29.335679-24.298808 48.357034-24.298808h95.321763c15.765816 0 30.379909 5.994081 41.298248 16.267455v-216.099176a60.094377 60.094377 0 0 1-41.252179 16.221387h-95.321763a60.555067 60.555067 0 0 1-48.351915-24.283452c-25.235543-33.845317-63.349916-53.255699-104.576502-53.255699-41.241942 0-79.361433 19.430857-104.581621 53.301768a60.478285 60.478285 0 0 1-48.351915 24.293689H263.411981a60.08414 60.08414 0 0 1-41.247061-16.221386v216.053107a60.08414 60.08414 0 0 1 41.247061-16.221387zM799.106774 398.163641h-553.339198a33.312965 33.312965 0 0 1-33.272015-33.272015V40.965528c0-18.345677 14.926338-33.272015 33.272015-33.272014h553.339198c18.345677 0 33.272015 14.926338 33.272015 33.272014v323.920979a33.312965 33.312965 0 0 1-33.272015 33.277134zM245.767576 23.049828c-9.879229 0-17.9157 8.036471-17.9157 17.9157v323.920979c0 9.879229 8.036471 17.9157 17.9157 17.9157h553.339198c9.879229 0 17.9157-8.036471 17.915701-17.9157V40.965528c0-9.879229-8.036471-17.9157-17.915701-17.9157h-553.339198z" fill="" p-id="1526"></path><path d="M205.95889 308.390626H153.076862c-11.645205 0-21.120051-9.474846-21.120052-21.120051s9.474846-21.120051 21.120052-21.120051h52.882028c11.645205 0 21.120051 9.474846 21.120051 21.120051s-9.474846 21.120051-21.120051 21.120051z m-52.882028-32.007678c-5.9992 0-10.882508 4.883308-10.882509 10.882508s4.883308 10.882508 10.882509 10.882508h52.882028c5.9992 0 10.882508-4.883308 10.882508-10.882508s-4.883308-10.882508-10.882508-10.882508H153.076862z" fill="" p-id="1527"></path><path d="M155.385427 316.37591h-0.097256a5.118771 5.118771 0 0 1-5.026634-5.21091l0.890666-49.79029c0.051188-2.825562 2.421179-5.006159 5.21091-5.026634a5.118771 5.118771 0 0 1 5.026633 5.21091l-0.890666 49.79029a5.113653 5.113653 0 0 1-5.113653 5.026634zM178.972727 316.37591h-0.092138a5.118771 5.118771 0 0 1-5.026634-5.21091l0.885548-49.79029a5.118771 5.118771 0 0 1 5.118771-5.026634h0.092138a5.118771 5.118771 0 0 1 5.026634 5.21091l-0.885548 49.79029a5.118771 5.118771 0 0 1-5.118771 5.026634zM200.190034 316.37591h-0.092137a5.118771 5.118771 0 0 1-5.026634-5.21091l0.885547-49.79029a5.118771 5.118771 0 0 1 5.118772-5.026634h0.092138a5.118771 5.118771 0 0 1 5.026633 5.21091l-0.885547 49.79029a5.118771 5.118771 0 0 1-5.118772 5.026634zM570.256738 771.977285h-43.934415l15.24882-57.381428-66.953531 76.515396h43.934416l-15.274415 57.386548z" fill="" p-id="1528"></path><path d="M522.437175 864.821563c-45.920499 0-83.282412-37.356794-83.282412-83.277294s37.361913-83.282412 83.282412-83.282412 83.277293 37.361913 83.277294 83.282412-37.356794 83.277293-83.277294 83.277294z m0-155.887067c-40.039031 0-72.614892 32.570743-72.614892 72.614892 0 40.033912 32.570743 72.609774 72.614892 72.609774 40.033912 0 72.609774-32.570743 72.609774-72.609774 0-40.044149-32.575862-72.614892-72.609774-72.614892zM850.657922 249.115252H194.216428v-127.969287H850.657922v127.969287z m-641.085179-15.356314H835.301608v-97.256659H209.572743v97.256659z" fill="" p-id="1529"></path></svg>