<?xml version="1.0" standalone="no"?><!DOCTYPE svg PUBLIC "-//W3C//DTD SVG 1.1//EN" "http://www.w3.org/Graphics/SVG/1.1/DTD/svg11.dtd"><svg t="1526461914983" class="icon" style="" viewBox="0 0 1024 1024" version="1.1" xmlns="http://www.w3.org/2000/svg" p-id="1197" xmlns:xlink="http://www.w3.org/1999/xlink" width="200" height="200"><defs><style type="text/css"></style></defs><path d="M513 489.7h89c12.5 0 15 2.7 15 15.1v25.8c0 7.3 2.9 13.2 8.7 17.4 23.2 17 41.9 38 56.1 63.1 4.3 7.6 11 11.2 20 11.1 31-0.2 62 0 92.9-0.1 11 0 16.3-5.2 16.3-16.3 0.1-29.9 0-59.9 0-89.8 0-10.8 3-13.9 13.9-14 9.6-0.1 19.3-0.1 28.9 0 10 0.1 13.1 3.1 13.1 13 0 31 0.2 62-0.1 92.9-0.1 8.7 2.8 14.6 10.8 18.9 12.7 6.8 19.3 17.8 19.3 32.5 0 36.7-0.1 73.4 0 110.1 0 15.3-6.7 26.6-19.9 33.7-7.4 4-10.2 9.5-10.1 17.7 0.2 31 0.1 62 0.1 92.9 0 10.9-2.9 13.8-13.8 13.8-9.6 0-19.3 0.1-28.9 0-9.7-0.1-13.1-3.4-13.1-13.1v-89c0-13.1-4.9-18.1-17.8-18.1-33.6 0-67.2 0.2-100.8-0.1-10.1-0.1-17.2 3.6-23.1 11.7-33.6 46.1-79.2 73-135.6 78.4-70.7 6.9-130.1-17.1-174.4-73.6-9.4-12-19-17.1-34.1-16.7-31.2 0.9-62.5 0.3-93.7 0.3-13 0-17.8 4.9-17.8 18v88.3c0 10.7-3.2 13.9-13.9 14-9.9 0-19.8 0.1-29.7 0-8.9-0.1-12.3-3.4-12.3-12.2-0.1-31-0.2-62 0.1-92.9 0.1-9.3-2.7-15.6-11.4-20.1-12.2-6.4-18.6-17.3-18.7-31.2-0.1-37.7-0.1-75.5 0.1-113.3 0.1-14 7-24.5 19.1-30.9 8-4.3 10.9-10.2 10.8-18.9-0.2-31-0.1-62-0.1-92.9 0-9.9 3.1-13 13.1-13.1 10.2-0.1 20.3-0.1 30.5 0 8.9 0.1 12.3 3.6 12.3 12.4 0.1 29.9 0 59.9 0 89.8 0 13.1 4.8 17.8 17.9 17.8 30.2 0 60.4-0.2 90.6 0.1 10 0.1 16.8-4 21.6-12.5 13.6-24.2 31.7-44.4 54.1-60.8 7.1-5.2 10.3-12 10-20.8-0.2-8.6-0.1-17.2 0-25.8 0.1-9.6 3.3-12.7 13.5-12.8 27.9-0.1 55.7 0 83.6-0.1 2.7 0.3 5.3 0.3 7.9 0.3zM512.9 128.4c50.2 0 100.5-0.1 150.7 0 20.5 0 32.7 15.5 28.3 35.4-2.7 12.2-12.7 20.2-26.1 20.3-24.2 0.2-48.4 0-72.6 0.1-12.1 0-15.3 3.2-15.4 15.1v16.4c0 7-3.6 10.5-10.6 10.7-3.9 0.1-7.8-0.1-11.7 0.3-9.5 0.8-12.3 3.7-12.3 13.3-0.1 21.3 0 42.7 0 64 0 13.3-2.7 15.9-16 15.9H496c-10.3-0.1-13.7-3.2-13.7-13.5-0.1-21.9 0-43.7-0.1-65.6 0-10.8-3-13.7-13.8-14.4-20.8-1.2-20.8-1.2-20.8-21.7v-7c-0.1-9.9-3.7-13.6-13.7-13.6-24.5-0.1-48.9 0.1-73.4-0.1-22.1-0.2-34.8-21.8-24.7-41.4 5.6-10.8 15.1-14.3 26.6-14.3 50.1 0.2 100.3 0.1 150.5 0.1zM512.3 466.9h-48.4c-12.1 0-18.5-6.2-18.5-18.1-0.1-30.5-0.1-60.9 0-91.4 0-12.7 5.9-18.6 18.8-18.6 32.3-0.1 64.6-0.1 96.9 0 13.3 0.1 18.9 5.9 18.9 19.2 0.1 29.7 0.1 59.4 0 89 0 14.3-5.6 19.8-19.9 19.9-16 0.1-31.9 0-47.8 0z" p-id="1198"></path></svg>