<?xml version="1.0" standalone="no"?><!DOCTYPE svg PUBLIC "-//W3C//DTD SVG 1.1//EN" "http://www.w3.org/Graphics/SVG/1.1/DTD/svg11.dtd"><svg t="1526462795206" class="icon" style="" viewBox="0 0 1024 1024" version="1.1" xmlns="http://www.w3.org/2000/svg" p-id="2362" xmlns:xlink="http://www.w3.org/1999/xlink" width="200" height="200"><defs><style type="text/css"></style></defs><path d="M515.413333 1002.837333c-113.322667 0-222.890667-59.392-286.72-155.306666-60.757333-91.136-70.997333-202.752-27.989333-305.834667 44.373333-80.896 93.184-154.965333 140.629333-226.304 36.864-55.296 74.752-112.64 109.909334-173.056 12.970667-21.845333 25.258667-46.08 36.864-69.632 8.192-16.384 16.725333-33.109333 25.258666-48.810667l58.709334 116.394667 0.341333 0.341333c34.816 59.050667 74.410667 115.712 112.64 170.325334 54.954667 78.506667 106.837333 152.917333 142.677333 230.4 44.032 95.573333 35.157333 208.554667-23.552 302.08-61.44 97.621333-167.253333 157.013333-283.306666 159.061333-1.706667 0.341333-3.413333 0.341333-5.461334 0.341333z m43.008-787.114666c-22.869333-31.744-69.973333-32.426667-93.525333-1.024-70.656 94.208-160.085333 229.376-198.997333 303.104-42.666667 84.650667-43.008 191.829333 9.898666 279.893333 51.882667 86.698667 146.090667 146.432 246.101334 148.821333h1.024c95.232-3.754667 194.56-70.997333 241.322666-157.696 50.176-92.501333 36.522667-200.021333-25.258666-303.104l-0.682667-0.682666c-20.138667-29.696-48.128-73.728-77.824-120.490667-26.282667-42.325333-69.290667-103.424-102.058667-148.821333z m0 0" p-id="2363"></path><path d="M764.586667 599.381333c-55.637333-12.629333-155.648-21.845333-264.192 36.181334-97.962667 52.224-193.194667 22.528-243.712-1.365334-2.389333 54.272 11.605333 110.592 41.642666 160.768 48.469333 80.896 130.048 128.682667 223.232 130.730667h1.024c77.141333-3.072 151.552-44.032 198.997334-107.52 11.605333-18.090667 22.186667-36.864 31.402666-55.296 21.162667-51.541333 25.258667-107.178667 11.605334-163.498667z m0 0" p-id="2364"></path></svg>