<?xml version="1.0" standalone="no"?><!DOCTYPE svg PUBLIC "-//W3C//DTD SVG 1.1//EN" "http://www.w3.org/Graphics/SVG/1.1/DTD/svg11.dtd"><svg t="1526461892716" class="icon" style="" viewBox="0 0 1024 1024" version="1.1" xmlns="http://www.w3.org/2000/svg" p-id="977" xmlns:xlink="http://www.w3.org/1999/xlink" width="200" height="200"><defs><style type="text/css"></style></defs><path d="M947.765223 200.299909l-50.033533-9.178033c-4.824889-0.946558-6.548136-5.007037-3.810792-9.094122l28.688389-42.552142c2.76702-4.061502 2.168386-10.263761-1.306762-13.739932l-27.520797-27.533077c-3.489474-3.476171-9.705036-4.060479-13.780865-1.335415l-42.537815 28.730345c-4.102435 2.752694-8.162914 1.028423-9.066493-3.838422l-9.205663-50.034557c-0.903579-4.866844-5.67321-8.815783-10.582009-8.815783l-38.936801 0c-4.937452 0-9.706059 3.948939-10.610662 8.815783l-9.218966 50.034557c-0.87595 4.866844-4.951779 6.563486-9.039887 3.810792l-42.537815-28.701692c-4.088108-2.726088-10.276041-2.14178-13.780865 1.335415l-27.520797 27.533077c-3.490497 3.504824-4.101411 9.67843-1.321088 13.739932l28.674063 42.552142c2.76702 4.088108 1.057075 8.147564-3.78214 9.094122l-50.033533 9.178033c-4.867868 0.916882-8.831132 5.67321-8.831132 10.595312l0 38.937824c0 4.922103 3.963265 9.67843 8.831132 10.567683l50.033533 9.233292c4.852518 0.890276 6.54916 4.978385 3.809769 9.066493l-28.701692 42.524512c-2.780323 4.115738-2.169409 10.290367 1.321088 13.794168l27.520797 27.506471c3.504824 3.504824 9.692756 4.088108 13.780865 1.335415l42.537815-28.701692c4.088108-2.753717 8.163937-1.028423 9.039887 3.809769l9.218966 50.005904c0.904603 4.866844 5.67321 8.815783 10.610662 8.815783l38.936801 0c4.9088 0 9.67843-3.948939 10.582009-8.815783l9.205663-50.005904c0.904603-4.839215 4.965082-6.563486 9.066493-3.809769l42.537815 28.701692c4.074805 2.752694 10.29139 2.169409 13.780865-1.335415l27.520797-27.506471c3.475148-3.504824 4.073782-9.67843 1.306762-13.794168l-28.688389-42.524512c-2.752694-4.089132-1.043772-8.176217 3.797489-9.066493l50.045813-9.233292c4.839215-0.889253 8.816806-5.646604 8.816806-10.567683l0-38.937824C956.582029 205.972095 952.604438 201.216791 947.765223 200.299909M789.516036 282.456047c-28.702716 0-51.966559-23.280216-51.966559-51.980885 0-28.701692 23.263843-51.952232 51.966559-51.952232 28.716019 0 51.980885 23.25054 51.980885 51.952232C841.496921 259.176854 818.232055 282.456047 789.516036 282.456047" p-id="978"></path><path d="M715.564767 562.605561l-100.33108-18.495236c-9.721409-1.779529-13.155624-9.92914-7.634888-18.132986l57.55688-85.354993c5.53404-8.17724 4.324492-20.635993-2.670829-27.64564l-55.205323-55.178717c-6.995321-7.009647-19.414165-8.17724-27.631314-2.642177l-85.298711 57.570183c-8.232498 5.507434-16.394389 2.058892-18.202571-7.67582l-18.454304-100.317777c-1.793856-9.761318-11.360745-17.715477-21.24793-17.715477l-78.081333 0c-9.901511 0-19.455097 7.953136-21.262256 17.715477l-18.453281 100.317777c-1.793856 9.706059-9.971096 13.154601-18.189268 7.648191l-85.299735-57.541531c-8.203846-5.535063-20.650319-4.367471-27.644617 2.642177l-55.193043 55.206346c-7.02295 7.008624-8.205892 19.439748-2.670829 27.616988l57.543577 85.354993c5.535063 8.203846 2.099824 16.353456-7.634888 18.132986L79.227947 562.605561c-9.734712 1.808182-17.674545 11.347442-17.674545 21.219277l0 78.095659c0 9.873882 7.939833 19.440771 17.674545 21.221324l100.358709 18.494213c9.734712 1.808182 13.141298 9.983375 7.634888 18.160615l-57.571207 85.354993c-5.535063 8.176217-4.352121 20.609387 2.670829 27.615964l55.193043 55.207369c6.993275 6.979972 19.440771 8.204869 27.644617 2.641153l85.299735-57.514925c8.218172-5.533017 16.394389-2.084475 18.189268 7.621585l18.453281 100.289124c1.808182 9.761318 11.360745 17.7165 21.262256 17.7165l78.081333 0c9.887184 0 19.454074-7.955182 21.24793-17.7165l18.454304-100.289124c1.808182-9.735735 9.970072-13.183254 18.202571-7.621585l85.298711 57.514925c8.217149 5.563716 20.635993 4.338818 27.631314-2.641153l55.205323-55.178717c6.995321-7.036253 8.205892-19.4684 2.656503-27.64564l-57.55688-85.354993c-5.533017-8.17724-2.099824-16.352433 7.634888-18.160615l100.346429-18.494213c9.720386-1.780553 17.674545-11.347442 17.674545-21.221324l0-78.095659C733.239312 573.953004 725.285153 564.413743 715.564767 562.605561M397.354402 744.522798c-67.027579 0-121.371278-54.315046-121.371278-121.370255 0-66.998927 54.343699-121.371278 121.371278-121.371278 67.01223 0 121.355929 54.373375 121.355929 121.371278C518.71033 690.207751 464.367655 744.522798 397.354402 744.522798" p-id="979"></path></svg>