<?xml version="1.0" standalone="no"?><!DOCTYPE svg PUBLIC "-//W3C//DTD SVG 1.1//EN" "http://www.w3.org/Graphics/SVG/1.1/DTD/svg11.dtd"><svg t="1526461840865" class="icon" style="" viewBox="0 0 1024 1024" version="1.1" xmlns="http://www.w3.org/2000/svg" p-id="868" xmlns:xlink="http://www.w3.org/1999/xlink" width="200" height="200"><defs><style type="text/css"></style></defs><path d="M947.229582 661.333333h-136.533333v-27.733333a78.933333 78.933333 0 0 0-78.933333-78.933333h-198.371556V426.666667h198.371556a78.933333 78.933333 0 0 0 78.933333-78.933334v-268.8A78.933333 78.933333 0 0 0 731.762916 0h-418.133334a78.933333 78.933333 0 0 0-78.904889 78.933333v268.8A78.933333 78.933333 0 0 0 313.658027 426.666667h177.038222v128h-177.038222a78.933333 78.933333 0 0 0-78.933334 78.933333v27.733333H76.829582a76.8 76.8 0 0 0-76.8 76.8v206.933334A76.8 76.8 0 0 0 76.858027 1024h315.733333a76.771556 76.771556 0 0 0 76.8-76.8v-209.066667a76.8 76.8 0 0 0-76.8-76.8H277.362916v-27.733333A36.266667 36.266667 0 0 1 313.658027 597.333333H512.029582l10.638222-4.266666 10.695112 4.266666h198.371555A36.266667 36.266667 0 0 1 768.029582 633.6v27.733333h-136.533333a76.8 76.8 0 0 0-76.8 76.8v206.933334A76.828444 76.828444 0 0 0 631.496249 1024h315.733333a76.8 76.8 0 0 0 76.8-76.8v-209.066667a76.8 76.8 0 0 0-76.8-76.8zM313.658027 42.666667h418.133333A36.266667 36.266667 0 0 1 768.029582 78.933333V256H277.362916V78.933333c0-20.024889 16.241778-36.266667 36.295111-36.266666zM277.362916 347.733333V298.666667H768.029582v49.066666a36.295111 36.295111 0 0 1-36.295111 36.266667h-418.133333c-20.024889 0-36.238222-16.213333-36.238222-36.266667zM392.562916 981.333333H76.829582a34.133333 34.133333 0 0 1-34.133333-34.133333V938.666667H426.696249v8.533333a34.133333 34.133333 0 0 1-34.133333 34.133333z m34.133333-243.2v157.866667H42.696249v-157.866667a34.133333 34.133333 0 0 1 34.133333-34.133333h315.733334a34.133333 34.133333 0 0 1 34.133333 34.133333z m204.8-34.133333H947.229582a34.133333 34.133333 0 0 1 34.133334 34.133333v157.866667H597.362916v-157.866667a34.133333 34.133333 0 0 1 34.133333-34.133333zM947.229582 981.333333H631.496249a34.133333 34.133333 0 0 1-34.133333-34.133333V938.666667h384v8.533333a34.133333 34.133333 0 0 1-34.133334 34.133333z" p-id="869"></path></svg>