<?xml version="1.0" standalone="no"?><!DOCTYPE svg PUBLIC "-//W3C//DTD SVG 1.1//EN" "http://www.w3.org/Graphics/SVG/1.1/DTD/svg11.dtd"><svg t="1526461927309" class="icon" style="" viewBox="0 0 1024 1024" version="1.1" xmlns="http://www.w3.org/2000/svg" p-id="1415" xmlns:xlink="http://www.w3.org/1999/xlink" width="200" height="200"><defs><style type="text/css"></style></defs><path d="M512 62.71946c-247.639077 0-448.390263 200.751187-448.390263 448.390264s200.751187 448.390263 448.390263 448.390263c247.6401 0 448.391287-200.751187 448.391287-448.390263S759.639077 62.71946 512 62.71946z m0 65.788356c104.386442 0 199.004403 41.807175 268.035616 109.58586l-55.505152 54.43068c-54.450123-52.712549-128.631636-85.166705-210.40301-85.166704-27.429723 0-53.998845 3.671623-79.264275 10.513447l-20.754697-76.718289c31.245631-8.245801 64.053851-12.644995 97.891518-12.644994zM774.565021 509.906316c0 66.635653-25.038256 127.413901-66.202795 173.473936l-20.192901-20.590967c35.863812-40.796148 57.623395-94.294596 57.623396-152.881946 0-17.923208-2.037403-35.370579-5.890151-52.124148l27.79095-7.518231a261.137509 261.137509 0 0 1 6.871501 59.641356z m-520.876158 0c0-64.183811 23.232121-122.932844 61.727876-168.3308l20.231787 20.631899c-33.217543 40.095183-53.187363 91.563392-53.187363 147.698901a232.157477 232.157477 0 0 0 6.724145 55.563479l-27.786856 7.517208a260.97378 260.97378 0 0 1-7.709589-63.080687z m462.268342 0c0 50.242288-18.364253 96.192829-48.739051 131.517359l-51.111075-52.120055c16.380062-21.773909 26.091238-48.848545 26.091239-78.193896 0-8.968256-0.907673-17.72571-2.633991-26.183336l71.499428-19.342534a202.523553 202.523553 0 0 1 4.89345 44.322462z m-403.660526 0c0-47.787376 16.618493-91.686189 44.37772-126.258589l49.974181 50.959625c-15.623839 21.478174-24.846898 47.911196-24.846898 76.502372 0 9.775644 1.085728 19.297508 3.128248 28.458145l-66.930366 18.10638a202.212468 202.212468 0 0 1-5.702885-47.767933z m112.457258 97.842398c23.087834 20.857027 53.682643 33.56035 87.246063 33.56035 12.868075 0 25.296129-1.87572 37.035498-5.352914l18.560728 68.60654a202.026226 202.026226 0 0 1-53.468772 7.173377c-53.822836 0-102.722546-21.071921-138.907677-55.412031l49.53416-48.575322z m36.414351-292.637943a202.030319 202.030319 0 0 1 52.958142-7.03523c53.604872 0 102.32141 20.905122 138.461515 54.997591l-52.858881 51.835576c-23.143093-21.116947-53.931307-33.997302-87.730087-33.997302a130.410142 130.410142 0 0 0-31.959899 3.958148l-18.87079-69.758783z m212.742289 27.052123c-41.566698-39.607066-97.836259-63.922868-159.784147-63.922869a231.900627 231.900627 0 0 0-60.750619 8.0657l-7.515161-27.77867c21.759583-5.895267 44.641733-9.05933 68.26578-9.05933 69.995167 0 133.534296 27.619034 180.332135 72.545246l-20.547988 20.149923zM353.906355 677.225065c41.609677 39.854707 98.0532 64.346517 160.220075 64.346517 21.209044 0 41.745776-2.866281 61.261249-8.203845l7.515161 27.77867c-21.912056 5.984295-44.967144 9.197476-68.77641 9.197476-70.213131 0-133.928269-27.795043-180.76704-72.969919l20.546965-20.148899z m-212.766848-71.704088c-7.664563-30.198789-11.742439-61.828161-11.742438-94.411253 0-99.205443 37.758975-189.589986 99.686396-257.57231l56.733119 57.852616c-46.237067 53.131081-74.237795 122.55115-74.237794 198.515262 0 25.560142 3.184529 50.375318 9.15245 74.083276l-79.591733 21.532409z m370.860493 288.191678c-104.151082 0-198.581778-41.617863-267.572058-109.128443l58.861596-57.721633c54.490032 52.962236 128.847553 85.591377 210.837916 85.591377 27.614941 0 54.358025-3.720741 79.775928-10.651594l21.070897 77.886905c-32.765241 9.134031-67.297732 14.023388-102.974279 14.023388z m281.511535-123.502825l-55.599295-56.697303c48.931432-53.749158 78.763878-125.193327 78.763878-203.606211 0-24.328082-2.89084-47.977711-8.31334-70.644967l75.06258-20.306488c7.299243 29.517267 11.177574 60.383252 11.177573 92.155886-0.001023 99.95041-38.33305 190.945867-101.091396 259.099083z" p-id="1416"></path></svg>